<svg xmlns="http://www.w3.org/2000/svg" xmlns:xlink="http://www.w3.org/1999/xlink" width="1080" zoomAndPan="magnify" viewBox="0 0 810 809.999993" height="1080" preserveAspectRatio="xMidYMid meet" version="1.0"><defs><g/></defs><g fill="#000000" fill-opacity="1"><g transform="translate(138.874982, 706.123308)"><g><path d="M 440.375 -662.765625 L 457 -662.765625 L 455.53125 -646.140625 L 435.96875 -612.90625 L 428.640625 -621.21875 L 420.328125 -621.21875 Z M 132.453125 -654.453125 L 149.078125 -654.453125 L 172.53125 -637.828125 L 173.015625 -646.140625 C 202.671875 -640.597656 223.691406 -626.75 236.078125 -604.59375 C 255.296875 -604.59375 275.171875 -546.429688 295.703125 -430.109375 L 410.5625 -604.59375 L 419.359375 -612.90625 L 427.671875 -612.90625 L 427.171875 -604.59375 L 309.390625 -396.875 L 326 -396.875 C 413 -568.59375 464.8125 -654.453125 481.4375 -654.453125 L 504.890625 -637.828125 L 505.375 -646.140625 C 529.164062 -646.140625 557.351562 -618.441406 589.9375 -563.046875 L 587.484375 -538.125 L 578.6875 -529.8125 L 586.03125 -521.515625 L 583.09375 -488.265625 L 566.46875 -488.265625 L 578.6875 -438.421875 L 562.5625 -347.015625 L 560.125 -322.09375 L 567.9375 -313.78125 L 566.96875 -305.46875 L 549.375 -288.859375 L 564.03125 -272.234375 L 546.4375 -255.625 L 561.09375 -239 L 552.296875 -230.703125 L 543.984375 -230.703125 L 551.8125 -222.390625 L 531.28125 10.265625 C 514.664062 10.265625 505.707031 18.570312 504.40625 35.1875 C 487.78125 35.1875 478.164062 49.035156 475.5625 76.734375 L 450.640625 76.734375 L 403.71875 43.5 L 416.421875 -6.359375 L 404.203125 -56.203125 L 460.40625 -413.5 C 432.71875 -384.5 402.414062 -323.566406 369.5 -230.703125 C 366.570312 -198.441406 353.539062 -176.28125 330.40625 -164.21875 L 322.09375 -164.21875 L 322.578125 -172.53125 L 331.875 -180.84375 L 332.84375 -189.15625 L 325.03125 -197.453125 L 343.109375 -214.078125 L 345.0625 -239 L 328.453125 -239 C 326.171875 -208.695312 313.132812 -186.539062 289.34375 -172.53125 L 281.03125 -172.53125 L 243.40625 -214.078125 C 228.738281 -214.078125 219.941406 -239.003906 217.015625 -288.859375 C 188.660156 -346.535156 175.625 -388.082031 177.90625 -413.5 L 169.59375 -413.5 L 152.5 -313.78125 L 146.625 -247.3125 L 136.359375 -222.390625 L 140.765625 -180.84375 L 125.125 1.953125 C 114.039062 1.953125 107.6875 10.257812 106.0625 26.875 L 61.09375 68.421875 L 52.78125 68.421875 L -3.421875 43.5 L 8.796875 1.953125 L 8.3125 -89.4375 L 11.734375 -130.984375 L 20.53125 -139.296875 L 13.203125 -147.609375 L 14.171875 -155.921875 C 21.671875 -240.640625 37.960938 -332.035156 63.046875 -430.109375 L 71.359375 -430.109375 L 63.53125 -438.421875 L 64.515625 -446.734375 L 75.765625 -479.96875 L 69.890625 -513.203125 L 70.875 -521.515625 L 79.171875 -521.515625 L 77.71875 -504.890625 L 86.015625 -504.890625 L 88.46875 -529.8125 L 80.640625 -538.125 L 110.953125 -596.296875 L 112.90625 -621.21875 L 103.625 -612.90625 L 95.3125 -612.90625 L 87.984375 -621.21875 L 89.9375 -646.140625 L 98.234375 -646.140625 L 106.0625 -637.828125 L 114.375 -637.828125 Z M 340.671875 -280.546875 L 347.015625 -255.625 L 355.328125 -255.625 C 357.609375 -285.269531 391.820312 -360.050781 457.96875 -479.96875 L 469.703125 -521.515625 C 428.316406 -470.023438 385.304688 -389.703125 340.671875 -280.546875 Z M 488.765625 -455.03125 L 479.96875 -446.734375 L 461.390625 -239 L 469.703125 -239 L 493.65625 -413.5 L 485.828125 -421.796875 L 494.140625 -421.796875 L 486.8125 -430.109375 L 487.296875 -438.421875 L 496.578125 -446.734375 L 497.078125 -455.03125 Z M 434.515625 -22.96875 L 428.640625 43.5 L 436.953125 43.5 L 449.171875 1.953125 L 442.8125 -22.96875 Z M 434.515625 -22.96875 "/></g></g></g></svg>